<svg xmlns="http://www.w3.org/2000/svg" viewBox="0 0 136.57 136.57"><defs><style>.cls-1{fill:#0a000f;}.cls-2{fill:#fff;}</style></defs><title>Fichier 1</title><g id="Calque_2" data-name="Calque 2"><g id="Elements"><g id="_Groupe_" data-name="&lt;Groupe&gt;"><g id="_Groupe_2" data-name="&lt;Groupe&gt;"><rect id="_Rectangle_" data-name="&lt;Rectangle&gt;" class="cls-1" width="136.57" height="136.57" rx="39.67" ry="39.67"/><g id="_Groupe_3" data-name="&lt;Groupe&gt;"><path id="_Tracé_transparent_" data-name="&lt;Tracé transparent&gt;" class="cls-2" d="M83.22,106.8H53.35A23.61,23.61,0,0,1,29.77,83.22V53.35A23.61,23.61,0,0,1,53.35,29.77H83.22A23.61,23.61,0,0,1,106.8,53.35V83.22A23.61,23.61,0,0,1,83.22,106.8ZM53.35,35.54A17.83,17.83,0,0,0,35.54,53.35V83.22A17.83,17.83,0,0,0,53.35,101H83.22A17.83,17.83,0,0,0,101,83.22V53.35A17.83,17.83,0,0,0,83.22,35.54Z"/><path id="_Tracé_transparent_2" data-name="&lt;Tracé transparent&gt;" class="cls-2" d="M68.28,87.77A19.49,19.49,0,1,1,87.77,68.28,19.51,19.51,0,0,1,68.28,87.77Zm0-33.06A13.58,13.58,0,1,0,81.86,68.28,13.59,13.59,0,0,0,68.28,54.71Z"/><path id="_Tracé_" data-name="&lt;Tracé&gt;" class="cls-2" d="M95,46.68a5.07,5.07,0,1,1-5.07-5.07A5.07,5.07,0,0,1,95,46.68Z"/></g></g></g></g></g></svg>