<?xml version="1.0" encoding="utf-8"?>
<!-- Generator: Adobe Illustrator 22.1.0, SVG Export Plug-In . SVG Version: 6.00 Build 0)  -->
<svg version="1.1" id="Calque_1" xmlns="http://www.w3.org/2000/svg" xmlns:xlink="http://www.w3.org/1999/xlink" x="0px" y="0px"
	 viewBox="0 0 27.9 39.9" style="enable-background:new 0 0 27.9 39.9;" xml:space="preserve">
<style type="text/css">
	.st0{fill:#DF8E32;}
</style>
<path class="st0" d="M10.4,17.5c1,0.9,2.2,1.4,3.6,1.4s2.5-0.5,3.5-1.4c1-1,1.5-2.2,1.5-3.6s-0.5-2.5-1.5-3.5
	c-0.9-1-2.1-1.5-3.5-1.5s-2.6,0.5-3.6,1.5C9.5,11.3,9,12.5,9,13.9S9.5,16.5,10.4,17.5z M4.1,4.1C6.9,1.3,10.2,0,14,0
	s7.2,1.4,9.8,4.1c2.8,2.7,4.1,6,4.1,9.8c0,1.9-0.5,4.2-1.5,6.7c-0.9,2.5-2.1,4.8-3.5,7s-2.8,4.3-4.1,6.2c-1.3,1.9-2.4,3.4-3.4,4.5
	L14,39.9c-0.4-0.4-0.9-1-1.5-1.7c-0.6-0.8-1.8-2.2-3.4-4.3c-1.6-2.2-3.1-4.3-4.3-6.3c-1.2-2.1-2.3-4.4-3.3-6.9S0,15.9,0,13.9
	C0,10,1.4,6.7,4.1,4.1z"/>
</svg>
