<svg width="76" height="76" viewBox="0 0 76 76" fill="none" xmlns="http://www.w3.org/2000/svg">
<path d="M38 0.5C17.2917 0.5 0.5 17.2917 0.5 38C0.5 58.7083 17.2917 75.5 38 75.5C41.4583 75.5 44.25 72.7083 44.25 69.25C44.25 67.625 43.625 66.1667 42.625 65.0417C41.6667 63.9583 41.0417 62.5 41.0417 60.9167C41.0417 57.4583 43.8333 54.6667 47.2917 54.6667H54.6667C66.1667 54.6667 75.5 45.3333 75.5 33.8333C75.5 15.4167 58.7083 0.5 38 0.5ZM15.0833 38C11.625 38 8.83333 35.2083 8.83333 31.75C8.83333 28.2917 11.625 25.5 15.0833 25.5C18.5417 25.5 21.3333 28.2917 21.3333 31.75C21.3333 35.2083 18.5417 38 15.0833 38ZM27.5833 21.3333C24.125 21.3333 21.3333 18.5417 21.3333 15.0833C21.3333 11.625 24.125 8.83333 27.5833 8.83333C31.0417 8.83333 33.8333 11.625 33.8333 15.0833C33.8333 18.5417 31.0417 21.3333 27.5833 21.3333ZM48.4167 21.3333C44.9583 21.3333 42.1667 18.5417 42.1667 15.0833C42.1667 11.625 44.9583 8.83333 48.4167 8.83333C51.875 8.83333 54.6667 11.625 54.6667 15.0833C54.6667 18.5417 51.875 21.3333 48.4167 21.3333ZM60.9167 38C57.4583 38 54.6667 35.2083 54.6667 31.75C54.6667 28.2917 57.4583 25.5 60.9167 25.5C64.375 25.5 67.1667 28.2917 67.1667 31.75C67.1667 35.2083 64.375 38 60.9167 38Z" fill="#FFFDFD"/>
</svg>
